<svg width="498" height="69" viewBox="0 0 498 69" fill="none" xmlns="http://www.w3.org/2000/svg">
<path d="M53.15 59.3C52.7833 59.3 52.45 59.2 52.15 59C51.8833 58.8 51.7 58.5333 51.6 58.2L45 38L43.75 33.5L43.25 38.15L41.1 57.75C41.0333 58.1167 40.8667 58.4167 40.6 58.65C40.3333 58.8833 40.0333 59 39.7 59H35.95C35.5833 59 35.3 58.8833 35.1 58.65C34.9 58.4167 34.8167 58.1167 34.85 57.75L39 24.6C39.0333 24.1667 39.2 23.8167 39.5 23.55C39.8333 23.25 40.2333 23.1 40.7 23.1H45.25C45.6167 23.1 45.9333 23.2167 46.2 23.45C46.5 23.65 46.7 23.9167 46.8 24.25L54.3 47.3L55.3 50.75L56.3 47.35L63.85 24.2C63.95 23.8667 64.1333 23.6 64.4 23.4C64.7 23.2 65.0333 23.1 65.4 23.1H69.55C70.0167 23.1 70.4 23.25 70.7 23.55C71.0333 23.8167 71.2167 24.1667 71.25 24.6L75.4 57.75C75.4333 58.1167 75.35 58.4167 75.15 58.65C74.95 58.8833 74.6667 59 74.3 59H70.4C70.0333 59 69.7167 58.8833 69.45 58.65C69.1833 58.4167 69.0333 58.1333 69 57.8L66.75 37.8L66.25 33.5L64.95 38.2L58.5 58.15C58.4 58.4833 58.2 58.7667 57.9 59C57.6333 59.2 57.3167 59.3 56.95 59.3H53.15ZM90.032 59.65C87.232 59.65 84.9487 58.8667 83.182 57.3C81.4487 55.7 80.582 53.6333 80.582 51.1C80.582 48.8 81.382 46.9 82.982 45.4C84.582 43.8667 86.832 42.8667 89.732 42.4C90.4654 42.3333 91.1654 42.2333 91.832 42.1C94.1654 41.8333 95.582 41.6333 96.082 41.5C97.3154 41.3 97.932 40.6 97.932 39.4C97.932 38.1667 97.4154 37.1833 96.382 36.45C95.382 35.6833 94.1154 35.3 92.582 35.3C89.882 35.3 87.9154 36.2833 86.682 38.25C86.4154 38.6833 86.0987 38.9 85.732 38.9C85.4654 38.9 85.2487 38.8333 85.082 38.7L82.282 36.8C81.982 36.6 81.832 36.3167 81.832 35.95C81.832 35.85 81.8654 35.7 81.932 35.5C82.8987 33.6667 84.332 32.25 86.232 31.25C88.132 30.2167 90.282 29.7 92.682 29.7C94.882 29.7 96.8154 30.1167 98.482 30.95C100.149 31.7833 101.432 32.9667 102.332 34.5C103.265 36.0333 103.732 37.8 103.732 39.8V57.95C103.732 58.25 103.632 58.5 103.432 58.7C103.232 58.9 102.982 59 102.682 59H99.282C98.982 59 98.732 58.9167 98.532 58.75C98.332 58.55 98.232 58.2833 98.232 57.95V56C95.932 58.4333 93.1987 59.65 90.032 59.65ZM90.482 54.3C91.782 54.3 93.0154 53.9667 94.182 53.3C95.3487 52.6333 96.282 51.7667 96.982 50.7C97.7154 49.6 98.082 48.45 98.082 47.25V46.25L94.332 46.8C92.2987 47.0333 90.982 47.2167 90.382 47.35C87.6487 47.85 86.282 49.0333 86.282 50.9C86.282 51.9333 86.6654 52.7667 87.432 53.4C88.1987 54 89.2154 54.3 90.482 54.3ZM110.848 59C110.548 59 110.298 58.9 110.098 58.7C109.898 58.5 109.798 58.25 109.798 57.95V54.25C109.798 53.95 109.898 53.7 110.098 53.5C110.298 53.3 110.548 53.2 110.848 53.2H114.648V36H110.348C110.048 36 109.798 35.9 109.598 35.7C109.398 35.5 109.298 35.25 109.298 34.95V31.4C109.298 31.1 109.398 30.85 109.598 30.65C109.798 30.45 110.048 30.35 110.348 30.35H118.098C118.698 30.35 119.198 30.5667 119.598 31C120.031 31.4 120.248 31.9 120.248 32.5V34.3L122.948 32.15C123.948 31.35 124.814 30.8 125.548 30.5C126.281 30.1667 127.148 30 128.148 30H129.698C129.998 30 130.248 30.1 130.448 30.3C130.648 30.5 130.748 30.75 130.748 31.05V34.9C130.748 35.2 130.648 35.45 130.448 35.65C130.248 35.85 129.998 35.95 129.698 35.95H128.398C127.531 35.95 126.781 36.1 126.148 36.4C125.514 36.7 124.548 37.3667 123.248 38.4L120.498 40.6V53.2H125.448C125.748 53.2 125.998 53.3 126.198 53.5C126.398 53.7 126.498 53.95 126.498 54.25V57.95C126.498 58.25 126.398 58.5 126.198 58.7C125.998 58.9 125.748 59 125.448 59H110.848ZM147.83 59C145.23 59 143.113 58.2 141.48 56.6C139.88 55 139.08 52.9 139.08 50.3V35.95H135.63C135.33 35.95 135.08 35.85 134.88 35.65C134.68 35.45 134.58 35.2 134.58 34.9V31.4C134.58 31.1 134.68 30.85 134.88 30.65C135.08 30.45 135.33 30.35 135.63 30.35H139.08V24.95C139.08 24.65 139.18 24.4 139.38 24.2C139.58 24 139.83 23.9 140.13 23.9H144.03C144.33 23.9 144.58 24 144.78 24.2C144.98 24.4 145.08 24.65 145.08 24.95V30.35H153.53C153.83 30.35 154.08 30.45 154.28 30.65C154.48 30.85 154.58 31.1 154.58 31.4V34.95C154.58 35.25 154.48 35.5 154.28 35.7C154.08 35.9 153.83 36 153.53 36H145.08V50.05C145.08 51.05 145.363 51.85 145.93 52.45C146.53 53.05 147.313 53.35 148.28 53.35L153.53 53.4C153.83 53.4 154.08 53.5 154.28 53.7C154.48 53.9 154.58 54.15 154.58 54.45V57.95C154.58 58.25 154.48 58.5 154.28 58.7C154.08 58.9 153.83 59 153.53 59H147.83ZM165.498 27C165.198 27 164.948 26.9 164.748 26.7C164.548 26.5 164.448 26.25 164.448 25.95V20.5C164.448 20.2 164.548 19.95 164.748 19.75C164.948 19.55 165.198 19.45 165.498 19.45H168.898C169.198 19.45 169.448 19.55 169.648 19.75C169.848 19.95 169.948 20.2 169.948 20.5V25.95C169.948 26.25 169.848 26.5 169.648 26.7C169.448 26.9 169.198 27 168.898 27H165.498ZM166.698 59C165.998 59 165.398 58.7667 164.898 58.3C164.431 57.8 164.198 57.2 164.198 56.5V36.05H160.148C159.848 36.05 159.598 35.95 159.398 35.75C159.198 35.55 159.098 35.3 159.098 35V31.4C159.098 31.1 159.198 30.85 159.398 30.65C159.598 30.45 159.848 30.35 160.148 30.35H167.698C168.398 30.35 168.981 30.6 169.448 31.1C169.948 31.5667 170.198 32.15 170.198 32.85V53.3H174.248C174.548 53.3 174.798 53.4 174.998 53.6C175.198 53.8 175.298 54.05 175.298 54.35V57.95C175.298 58.25 175.198 58.5 174.998 58.7C174.798 58.9 174.548 59 174.248 59H166.698ZM181.872 59C181.572 59 181.322 58.9 181.122 58.7C180.922 58.5 180.822 58.25 180.822 57.95V31.4C180.822 31.1 180.922 30.85 181.122 30.65C181.322 30.45 181.572 30.35 181.872 30.35H185.772C186.072 30.35 186.322 30.45 186.522 30.65C186.722 30.85 186.822 31.1 186.822 31.4V33.75C187.755 32.4833 188.855 31.5 190.122 30.8C191.422 30.0667 192.839 29.7 194.372 29.7C196.272 29.7 197.972 30.15 199.472 31.05C201.005 31.95 202.205 33.2 203.072 34.8C203.939 36.4 204.372 38.2 204.372 40.2V57.95C204.372 58.25 204.272 58.5 204.072 58.7C203.872 58.9 203.622 59 203.322 59H199.422C199.122 59 198.872 58.9 198.672 58.7C198.472 58.5 198.372 58.25 198.372 57.95V40.95C198.372 39.1833 197.922 37.8333 197.022 36.9C196.122 35.9333 194.855 35.45 193.222 35.45C191.255 35.45 189.689 36.1 188.522 37.4C187.389 38.6667 186.822 40.4167 186.822 42.65V57.95C186.822 58.25 186.722 58.5 186.522 58.7C186.322 58.9 186.072 59 185.772 59H181.872ZM241.431 59.3C241.065 59.3 240.731 59.2 240.431 59C240.165 58.8 239.981 58.5333 239.881 58.2L233.281 38L232.031 33.5L231.531 38.15L229.381 57.75C229.315 58.1167 229.148 58.4167 228.881 58.65C228.615 58.8833 228.315 59 227.981 59H224.231C223.865 59 223.581 58.8833 223.381 58.65C223.181 58.4167 223.098 58.1167 223.131 57.75L227.281 24.6C227.315 24.1667 227.481 23.8167 227.781 23.55C228.115 23.25 228.515 23.1 228.981 23.1H233.531C233.898 23.1 234.215 23.2167 234.481 23.45C234.781 23.65 234.981 23.9167 235.081 24.25L242.581 47.3L243.581 50.75L244.581 47.35L252.131 24.2C252.231 23.8667 252.415 23.6 252.681 23.4C252.981 23.2 253.315 23.1 253.681 23.1H257.831C258.298 23.1 258.681 23.25 258.981 23.55C259.315 23.8167 259.498 24.1667 259.531 24.6L263.681 57.75C263.715 58.1167 263.631 58.4167 263.431 58.65C263.231 58.8833 262.948 59 262.581 59H258.681C258.315 59 257.998 58.8833 257.731 58.65C257.465 58.4167 257.315 58.1333 257.281 57.8L255.031 37.8L254.531 33.5L253.231 38.2L246.781 58.15C246.681 58.4833 246.481 58.7667 246.181 59C245.915 59.2 245.598 59.3 245.231 59.3H241.431ZM281.369 59C279.202 59 277.202 58.4667 275.369 57.4C273.569 56.3333 272.136 54.8833 271.069 53.05C270.002 51.2167 269.469 49.2167 269.469 47.05V41.65C269.469 39.4833 270.002 37.4833 271.069 35.65C272.136 33.8167 273.569 32.3667 275.369 31.3C277.202 30.2333 279.202 29.7 281.369 29.7C283.536 29.7 285.519 30.2333 287.319 31.3C289.152 32.3667 290.602 33.8167 291.669 35.65C292.736 37.4833 293.269 39.4833 293.269 41.65V45C293.269 45.6 293.052 46.1167 292.619 46.55C292.219 46.95 291.719 47.15 291.119 47.15H275.469V47.4C275.469 49.0333 276.036 50.4333 277.169 51.6C278.336 52.7333 279.736 53.3 281.369 53.3H289.319C289.619 53.3 289.869 53.4 290.069 53.6C290.269 53.8 290.369 54.05 290.369 54.35V57.95C290.369 58.25 290.269 58.5 290.069 58.7C289.869 58.9 289.619 59 289.319 59H281.369ZM287.269 41.75V41.3C287.269 39.6667 286.686 38.2833 285.519 37.15C284.386 35.9833 283.002 35.4 281.369 35.4C279.736 35.4 278.336 35.9833 277.169 37.15C276.036 38.2833 275.469 39.6667 275.469 41.3V41.75H287.269ZM299.373 59C299.073 59 298.823 58.9 298.623 58.7C298.423 58.5 298.323 58.25 298.323 57.95V54.25C298.323 53.95 298.423 53.7 298.623 53.5C298.823 53.3 299.073 53.2 299.373 53.2H303.173V36H298.873C298.573 36 298.323 35.9 298.123 35.7C297.923 35.5 297.823 35.25 297.823 34.95V31.4C297.823 31.1 297.923 30.85 298.123 30.65C298.323 30.45 298.573 30.35 298.873 30.35H306.623C307.223 30.35 307.723 30.5667 308.123 31C308.556 31.4 308.773 31.9 308.773 32.5V34.3L311.473 32.15C312.473 31.35 313.34 30.8 314.073 30.5C314.806 30.1667 315.673 30 316.673 30H318.223C318.523 30 318.773 30.1 318.973 30.3C319.173 30.5 319.273 30.75 319.273 31.05V34.9C319.273 35.2 319.173 35.45 318.973 35.65C318.773 35.85 318.523 35.95 318.223 35.95H316.923C316.056 35.95 315.306 36.1 314.673 36.4C314.04 36.7 313.073 37.3667 311.773 38.4L309.023 40.6V53.2H313.973C314.273 53.2 314.523 53.3 314.723 53.5C314.923 53.7 315.023 53.95 315.023 54.25V57.95C315.023 58.25 314.923 58.5 314.723 58.7C314.523 58.9 314.273 59 313.973 59H299.373ZM336.355 59C333.755 59 331.639 58.2 330.005 56.6C328.405 55 327.605 52.9 327.605 50.3V35.95H324.155C323.855 35.95 323.605 35.85 323.405 35.65C323.205 35.45 323.105 35.2 323.105 34.9V31.4C323.105 31.1 323.205 30.85 323.405 30.65C323.605 30.45 323.855 30.35 324.155 30.35H327.605V24.95C327.605 24.65 327.705 24.4 327.905 24.2C328.105 24 328.355 23.9 328.655 23.9H332.555C332.855 23.9 333.105 24 333.305 24.2C333.505 24.4 333.605 24.65 333.605 24.95V30.35H342.055C342.355 30.35 342.605 30.45 342.805 30.65C343.005 30.85 343.105 31.1 343.105 31.4V34.95C343.105 35.25 343.005 35.5 342.805 35.7C342.605 35.9 342.355 36 342.055 36H333.605V50.05C333.605 51.05 333.889 51.85 334.455 52.45C335.055 53.05 335.839 53.35 336.805 53.35L342.055 53.4C342.355 53.4 342.605 53.5 342.805 53.7C343.005 53.9 343.105 54.15 343.105 54.45V57.95C343.105 58.25 343.005 58.5 342.805 58.7C342.605 58.9 342.355 59 342.055 59H336.355ZM359.641 59C357.474 59 355.474 58.4667 353.641 57.4C351.841 56.3333 350.407 54.8833 349.341 53.05C348.274 51.2167 347.741 49.2167 347.741 47.05V41.65C347.741 39.4833 348.274 37.4833 349.341 35.65C350.407 33.8167 351.841 32.3667 353.641 31.3C355.474 30.2333 357.474 29.7 359.641 29.7C361.807 29.7 363.791 30.2333 365.591 31.3C367.424 32.3667 368.874 33.8167 369.941 35.65C371.007 37.4833 371.541 39.4833 371.541 41.65V45C371.541 45.6 371.324 46.1167 370.891 46.55C370.491 46.95 369.991 47.15 369.391 47.15H353.741V47.4C353.741 49.0333 354.307 50.4333 355.441 51.6C356.607 52.7333 358.007 53.3 359.641 53.3H367.591C367.891 53.3 368.141 53.4 368.341 53.6C368.541 53.8 368.641 54.05 368.641 54.35V57.95C368.641 58.25 368.541 58.5 368.341 58.7C368.141 58.9 367.891 59 367.591 59H359.641ZM365.541 41.75V41.3C365.541 39.6667 364.957 38.2833 363.791 37.15C362.657 35.9833 361.274 35.4 359.641 35.4C358.007 35.4 356.607 35.9833 355.441 37.15C354.307 38.2833 353.741 39.6667 353.741 41.3V41.75H365.541ZM379.089 59C378.789 59 378.539 58.9 378.339 58.7C378.139 58.5 378.039 58.25 378.039 57.95V31.4C378.039 31.1 378.139 30.85 378.339 30.65C378.539 30.45 378.789 30.35 379.089 30.35H382.989C383.289 30.35 383.539 30.45 383.739 30.65C383.939 30.85 384.039 31.1 384.039 31.4V33.75C384.972 32.4833 386.072 31.5 387.339 30.8C388.639 30.0667 390.055 29.7 391.589 29.7C393.489 29.7 395.189 30.15 396.689 31.05C398.222 31.95 399.422 33.2 400.289 34.8C401.155 36.4 401.589 38.2 401.589 40.2V57.95C401.589 58.25 401.489 58.5 401.289 58.7C401.089 58.9 400.839 59 400.539 59H396.639C396.339 59 396.089 58.9 395.889 58.7C395.689 58.5 395.589 58.25 395.589 57.95V40.95C395.589 39.1833 395.139 37.8333 394.239 36.9C393.339 35.9333 392.072 35.45 390.439 35.45C388.472 35.45 386.905 36.1 385.739 37.4C384.605 38.6667 384.039 40.4167 384.039 42.65V57.95C384.039 58.25 383.939 58.5 383.739 58.7C383.539 58.9 383.289 59 382.989 59H379.089ZM416.692 59.65C413.892 59.65 411.609 58.8667 409.842 57.3C408.109 55.7 407.242 53.6333 407.242 51.1C407.242 48.8 408.042 46.9 409.642 45.4C411.242 43.8667 413.492 42.8667 416.392 42.4C417.126 42.3333 417.826 42.2333 418.492 42.1C420.826 41.8333 422.242 41.6333 422.742 41.5C423.976 41.3 424.592 40.6 424.592 39.4C424.592 38.1667 424.076 37.1833 423.042 36.45C422.042 35.6833 420.776 35.3 419.242 35.3C416.542 35.3 414.576 36.2833 413.342 38.25C413.076 38.6833 412.759 38.9 412.392 38.9C412.126 38.9 411.909 38.8333 411.742 38.7L408.942 36.8C408.642 36.6 408.492 36.3167 408.492 35.95C408.492 35.85 408.526 35.7 408.592 35.5C409.559 33.6667 410.992 32.25 412.892 31.25C414.792 30.2167 416.942 29.7 419.342 29.7C421.542 29.7 423.476 30.1167 425.142 30.95C426.809 31.7833 428.092 32.9667 428.992 34.5C429.926 36.0333 430.392 37.8 430.392 39.8V57.95C430.392 58.25 430.292 58.5 430.092 58.7C429.892 58.9 429.642 59 429.342 59H425.942C425.642 59 425.392 58.9167 425.192 58.75C424.992 58.55 424.892 58.2833 424.892 57.95V56C422.592 58.4333 419.859 59.65 416.692 59.65ZM417.142 54.3C418.442 54.3 419.676 53.9667 420.842 53.3C422.009 52.6333 422.942 51.7667 423.642 50.7C424.376 49.6 424.742 48.45 424.742 47.25V46.25L420.992 46.8C418.959 47.0333 417.642 47.2167 417.042 47.35C414.309 47.85 412.942 49.0333 412.942 50.9C412.942 51.9333 413.326 52.7667 414.092 53.4C414.859 54 415.876 54.3 417.142 54.3ZM448.318 59C445.718 59 443.602 58.2 441.968 56.6C440.368 55 439.568 52.9 439.568 50.3V35.95H436.118C435.818 35.95 435.568 35.85 435.368 35.65C435.168 35.45 435.068 35.2 435.068 34.9V31.4C435.068 31.1 435.168 30.85 435.368 30.65C435.568 30.45 435.818 30.35 436.118 30.35H439.568V24.95C439.568 24.65 439.668 24.4 439.868 24.2C440.068 24 440.318 23.9 440.618 23.9H444.518C444.818 23.9 445.068 24 445.268 24.2C445.468 24.4 445.568 24.65 445.568 24.95V30.35H454.018C454.318 30.35 454.568 30.45 454.768 30.65C454.968 30.85 455.068 31.1 455.068 31.4V34.95C455.068 35.25 454.968 35.5 454.768 35.7C454.568 35.9 454.318 36 454.018 36H445.568V50.05C445.568 51.05 445.852 51.85 446.418 52.45C447.018 53.05 447.802 53.35 448.768 53.35L454.018 53.4C454.318 53.4 454.568 53.5 454.768 53.7C454.968 53.9 455.068 54.15 455.068 54.45V57.95C455.068 58.25 454.968 58.5 454.768 58.7C454.568 58.9 454.318 59 454.018 59H448.318Z" fill="black"/>
<line y1="2" x2="487" y2="2" stroke="black" stroke-width="4"/>
<line x1="4" y1="42" x2="28" y2="42" stroke="black" stroke-width="4"/>
<line x1="459" y1="42" x2="483" y2="42" stroke="black" stroke-width="4"/>
<line x1="485" y1="4" x2="485" y2="44" stroke="black" stroke-width="4"/>
<line x1="2" y1="4" x2="2" y2="44" stroke="black" stroke-width="4"/>
</svg>
